<?xml version="1.0" encoding="utf-8"?>
<!-- Generator: Adobe Illustrator 23.0.1, SVG Export Plug-In . SVG Version: 6.00 Build 0)  -->
<svg version="1.1" baseProfile="tiny" id="Layer_1" xmlns="http://www.w3.org/2000/svg" xmlns:xlink="http://www.w3.org/1999/xlink"
	 x="0px" y="0px" viewBox="0 0 1000 1000" xml:space="preserve">
<g>
	<g transform="translate(0.000000,511.000000) scale(0.100000,-0.100000)">
		<path fill="#FFFFFF" d="M7228,4474.9c32.5-18.1,131.1-75,217.7-124.7c953.2-544.7,1721-1459.4,2118.9-2521.3
			c362.5-966.3,420-1982.5,169.3-2966.7c-110.2-431.8-379.1-1041.7-631.8-1425.4C7924.4-4359.5,5653.4-5195.3,3599.7-4589.8
			C1722.7-4036.4,357.3-2393.9,124.3-415.1c-17,153.5-15.6,216.4,8.9,273.8c35.2,82.4,71.5,103,276.3,151.2
			c315,73.2,513.9,335.8,514.3,678.9c1.7,88.3,11.3,145.6,34.6,180.2c39.3,57.4,138.2,95.7,238,91.2
			c123.3-3.9,308.3,37.9,398.6,90.5c146.7,85.7,238.7,196.9,293.7,355.6c66.5,185.6,61.3,302.3-22.1,528.6
			c-63.9,173.3-66.7,191.5-35.3,264.9c42.8,100.3,125.1,139.4,244.8,122.2c303.2-48.9,530.4,46.9,720.8,304.6
			c130,175.5,158.4,415.5,74.7,646.1c-65.9,182.9-43.5,245.3,125.7,349c178.4,110.3,253.5,196.9,316.2,373.6
			c56.1,156.1,56.7,261.9,5.1,453.4c-40.1,144.2-10.5,233.3,95.4,287.8c192.2,98,814.5,226.5,1231.5,256.1
			c571,38,1072.1-8.4,1636.6-154.2C6472.8,4788.8,7102.4,4547.7,7228,4474.9z M6249.9,4415.8c-727,221.4-1549.2,239.7-2314.5,49.4
			l-179.7-44.1l1.9-119.4c4.5-336.7-127.4-655.4-370-901.5l-92.3-92l14.6-69.8c38.3-173.2,1.8-496.6-73.9-674
			c-52.8-123.7-184.5-298.4-300.8-397.1c-101.2-88.1-389.8-223.5-557.7-259.9l-63.7-15.2l7.9-130.5
			c22.3-359.2-168.2-761-469.4-990.4C1741.4,685.1,1526.8,584,1422.9,569l-75.2-12.4l-80.6-213.5C1141.9,14.9,974.4-174.2,680-328.2
			l-141.3-73.2l22.1-166.2c125.3-882,562.1-1778.3,1176.4-2417.7C2666.1-3954,3998.1-4469.7,5338-4376.4
			c1430.3,101.5,2704.5,883.9,3487.6,2143c166.2,270.2,425.6,877.8,507,1192.6c245.1,946.3,199.4,1870.6-135.4,2753
			c-185.5,488.1-421.2,883.3-775.1,1299.2C7859.9,3673.3,7124.6,4148.2,6249.9,4415.8z"/>
		<path fill="#FFFFFF" d="M6077.4,4120.7c64.3-67.7,60.5-165.7-10.7-332.4c-49.7-116.5-65-137.5-126.9-168.3
			c-86.4-43.7-180.8-26.7-241,45.7c-67.9,84.1-67.7,139,1.2,315.3c61.5,153.9,65.6,158.5,137.9,189.1
			C5930,4206.9,6013.9,4190.1,6077.4,4120.7z"/>
		<path fill="#FFFFFF" d="M7236.5,2986.4c64.5-153.4,61.8-246.4-8-316.5c-63.1-60.6-184.4-71.6-258.1-20.8
			c-65.7,45.4-164,245.8-169.8,346.9c-8.7,162.3,178.9,262.4,316.6,167.3C7165.4,3130.1,7194.9,3083.7,7236.5,2986.4z"/>
		<path fill="#FFFFFF" d="M9119.8,428.5c38.4-55.3,41.4-164.4,6.2-218.3c-45.9-70.1-129.2-108.7-208.7-98.7
			c-159.6,22.9-232.7,42.7-283.2,75.7c-112.5,73.5-111.8,252.4,1.4,329.6c71.4,48.8,93.6,50.5,257.5,20.2
			C9030.5,512.5,9077.1,491.3,9119.8,428.5z"/>
		<path fill="#FFFFFF" d="M4196.4,2849.3c39-97.2,19.9-171.7-59.8-239.3c-57.5-45.4-316.7-57.6-409.9-17.8
			c-125.4,53.5-156,229.8-57.9,325.6c64.4,61.5,88.4,68.2,252.6,65.9C4103.9,2979.8,4153.2,2956.7,4196.4,2849.3z"/>
		<path fill="#FFFFFF" d="M7728.6,1462.1c219.1-192.9,262.4-299,174.2-420.6c-44.7-63.6-141.5-101.2-213.5-84.5
			c-55,12.8-258.1,206-285.1,270.3C7332.7,1410,7582.8,1592,7728.6,1462.1z"/>
		<path fill="#FFFFFF" d="M5000-2060.6c-579.8,0-1124.9,225.8-1534.8,635.8c-410,410-635.8,955.1-635.8,1534.8
			s225.8,1124.9,635.8,1534.8c410,410,955.1,635.8,1534.8,635.8s1124.9-225.8,1534.8-635.8c410-410,635.8-955.1,635.8-1534.8
			s-225.8-1124.9-635.8-1534.8S5579.8-2060.6,5000-2060.6z M5000,1880.6c-976.3,0-1770.6-794.3-1770.6-1770.6
			c0-976.3,794.3-1770.6,1770.6-1770.6c976.3,0,1770.6,794.3,1770.6,1770.6C6770.6,1086.3,5976.3,1880.6,5000,1880.6z"/>
		<path fill="#FFFFFF" d="M8369.1-1523.4c-65.3-10.9-94.7-1.9-212.5,67.8c-156.6,92.5-202.7,158.8-188.6,265.9
			c11.7,80.1,41.1,121.4,115.8,159c76.9,40.8,174.6,16.7,303.2-74.9c168.3-119.9,196.2-211.6,105.8-338.5
			C8456.5-1494.9,8428.9-1513.4,8369.1-1523.4z"/>
		<path fill="#FFFFFF" d="M6427.4-2627.9c-60.2,55.6-64.6,133-24.1,315.8c35.6,155.8,36.1,157.8,112.3,196.7
			c55.4,28.1,93.2,34.6,146,21.2c143.4-36.5,185.5-155.7,129.3-376.8c-32.2-126.6-38.8-137-114.6-182
			C6586.2-2706.5,6502.2-2697.3,6427.4-2627.9z"/>
		<path fill="#FFFFFF" d="M1807.2,4.4c48.4-50.3,52-144.5,11.2-301.1c-43.5-174-83.4-221.4-190.2-233.5
			c-98.2-10.5-187,47.3-217,140.9c-20.1,64.5-17.9,100.4,20.1,233.5C1474.1-5.9,1481,4.3,1546.5,42.4c57.2,30.3,86.6,34,152.2,15.3
			C1743.7,44.7,1791.6,21,1807.2,4.4z"/>
		<path fill="#FFFFFF" d="M2784-1131c97.3-139.1,115.8-185,98.5-260.3c-29.5-133.7-153.2-195.2-280.4-140.9
			c-77,32.9-217.4,219.9-238,315.6c-17.7,92.4,28.2,170.2,127.9,210.3C2607.2-960.1,2689.5-995.3,2784-1131z"/>
		<path fill="#FFFFFF" d="M4680.3-3640.5c-170.1-9.3-261.7,25.2-300.7,114.1c-68.2,156.2,36.1,283.4,248.4,300
			c244.6,17.4,360.3-66.6,327-239.7C4931.2-3590.6,4870.4-3629.4,4680.3-3640.5z"/>
		<path fill="#FFFFFF" d="M2953.7-2449.2c23.4-78,21.7-88.3-51-219.7c-86.5-161.8-141.1-210.7-233.6-209.4
			c-99.5,0.9-165.5,49.9-192.9,144c-22.8,75.3-19.7,91.6,42.6,213.3c37.4,73,86.4,150.4,110.8,172.1
			C2732.3-2247,2907.8-2303,2953.7-2449.2z"/>
		<path fill="#FFFFFF" d="M2856.8,4280.5c65.3-85.1,45-212-44.7-288.2c-52.4-43.3-313.2-59.1-395.6-23.9
			c-107.4,45.9-150,159.4-104.4,271.3c42.1,98.6,112.6,129.9,281.1,127.9C2739,4366.8,2807.6,4343.9,2856.8,4280.5z"/>
		<path fill="#FFFFFF" d="M2158.8,3293.3c-13.1-80.5-31.9-105.4-184.7-260.3c-112.6-115.6-193.2-186.4-241.5-209.3
			c-64.1-32-249.7-48.3-544.1-47.6c-152.7,0.6-225.2,68.9-212.9,195.9c18.1,185,164.4,278.7,447.1,283.2l180.2,3.3l111.5,101.5
			c187.1,170.3,304.7,193,406.9,80.7C2163.1,3394.6,2172.7,3361.3,2158.8,3293.3z"/>
		<path fill="#FFFFFF" d="M971.4,1893.4c172.1-207,171-363.3-0.3-432.2c-117.5-47.2-183-17.2-292.4,133.3
			c-89.1,118.6-119.7,220.6-89,292.3c25.2,59.1,102.9,117.1,161.2,119.8C856.9,2012.2,883,1998.9,971.4,1893.4z"/>
	</g>
</g>
</svg>
