<?xml version="1.0" encoding="utf-8"?>
<!-- Generator: Adobe Illustrator 23.0.1, SVG Export Plug-In . SVG Version: 6.00 Build 0)  -->
<svg version="1.1" baseProfile="tiny" id="Layer_1" xmlns="http://www.w3.org/2000/svg" xmlns:xlink="http://www.w3.org/1999/xlink"
	 x="0px" y="0px" viewBox="0 0 1000 1000" xml:space="preserve">
<g>
	<g transform="translate(0.000000,511.000000) scale(0.100000,-0.100000)">
		<path fill="#232323" d="M7279.5,4568.3c33.3-18.5,134.1-76.6,222.7-127.4c975.2-556.4,1760.8-1490.6,2167.9-2575.2
			c370.9-987,429.7-2024.9,173.2-3030.2c-112.7-441-387.9-1064-646.4-1455.9C7992-4455.1,5668.5-5308.8,3567.3-4690.3
			C1647-4125.1,255.7-2384.2,17.3-363.1C-0.1-206.3-4.3-205.3,20.7-146.7C56.7-62.5,99.6,21.8,309.1,71
			c322.3,74.8,525.8,343,526.2,693.4c1.7,90.2,11.6,148.7,35.4,184.1c40.2,58.6,141.4,97.7,243.5,93.2
			c126.1-4,315.4,38.7,407.8,92.4c150.1,87.5,244.2,201.1,300.5,363.2c68,189.6,62.7,308.8-22.6,539.9
			c-65.4,177-68.2,195.6-36.1,270.6c43.8,102.4,128,142.4,250.5,124.8c310.2-49.9,399.8,42.9,594.6,306.1
			c133,179.3,162.1,424.4,76.4,659.9c-67.4,186.8-44.5,250.5,128.6,356.5c182.5,112.7,259.4,201.1,323.5,381.6
			c57.4,159.4,58,267.5,5.2,463.1c-41,147.3,132.1,243.3,240.4,299c196.6,100.1,827.6,168.1,1254.2,198.3
			c584.2,38.8,1096.9-8.6,1674.4-157.5C6506.8,4888.9,7151,4642.6,7279.5,4568.3z"/>
		<path fill="#232323" d="M2856.8,4280.5c65.3-85.1,45-212-44.7-288.2c-52.4-43.3-313.2-59.1-395.6-23.9
			c-107.4,45.9-150,159.4-104.4,271.3c42.1,98.6,112.6,129.9,281.1,127.9C2739,4366.8,2807.6,4343.9,2856.8,4280.5z"/>
		<path fill="#232323" d="M2158.8,3293.3c-13.1-80.5-31.9-105.4-184.7-260.3c-112.6-115.6-193.2-186.4-241.5-209.3
			c-64.1-32-249.7-48.3-544.1-47.6c-152.7,0.6-225.2,68.9-212.9,195.9c18.1,185,164.4,278.7,447.1,283.2l180.2,3.3l111.5,101.5
			c187.1,170.3,304.7,193,406.9,80.7C2163.1,3394.6,2172.7,3361.3,2158.8,3293.3z"/>
		<path fill="#232323" d="M971.4,1893.4c172.1-207,171-363.3-0.3-432.2c-117.5-47.2-183-17.2-292.4,133.3
			c-89.1,118.6-119.7,220.6-89,292.3c25.2,59.1,102.9,117.1,161.2,119.8C856.9,2012.2,883,1998.9,971.4,1893.4z"/>
	</g>
</g>
</svg>
