<?xml version="1.0" encoding="utf-8"?>
<!-- Generator: Adobe Illustrator 23.0.1, SVG Export Plug-In . SVG Version: 6.00 Build 0)  -->
<svg version="1.1" baseProfile="tiny" id="Layer_1" xmlns="http://www.w3.org/2000/svg" xmlns:xlink="http://www.w3.org/1999/xlink"
	 x="0px" y="0px" viewBox="0 0 1000 1000" xml:space="preserve">
<g>
	<g transform="translate(0.000000,511.000000) scale(0.100000,-0.100000)">
		<path d="M7279.5,4568.3c33.3-18.5,134.1-76.6,222.7-127.4c975.2-556.4,1760.8-1490.6,2167.9-2575.2
			c370.9-987,429.7-2024.9,173.2-3030.2c-112.7-441-387.9-1064-646.4-1455.9C7992-4455.1,5668.5-5308.8,3567.3-4690.3
			C1647-4125.1,250-2447.5,11.6-426.3c-17.4,156.8-16,221,9.1,279.7C56.7-62.5,93.9-41.5,303.4,7.8
			c322.3,74.8,525.8,343,526.2,693.4c1.7,90.2,11.6,148.7,35.4,184.1c40.2,58.6,141.4,97.7,243.5,93.2
			c126.1-4,315.4,38.7,407.8,92.4c150.1,87.5,244.2,201.1,300.5,363.2c68,189.6,62.7,308.8-22.6,539.9
			c-65.4,177-68.2,195.6-36.1,270.6c43.8,102.4,128,142.4,250.5,124.8c310.2-49.9,542.7,47.9,737.5,311.1
			c133,179.3,162.1,424.4,76.4,659.9c-67.4,186.8-44.5,250.5,128.6,356.5c182.5,112.7,259.4,201.1,323.5,381.6
			c57.4,159.4,58,267.5,5.2,463.1c-41,147.3-10.7,238.3,97.6,294c196.6,100.1,833.3,231.3,1260,261.6
			c584.2,38.8,1096.9-8.6,1674.4-157.5C6506.8,4888.9,7151,4642.6,7279.5,4568.3z"/>
	</g>
</g>
</svg>
